<svg width="49" height="48" viewBox="0 0 49 48" fill="none" xmlns="http://www.w3.org/2000/svg">
<g id="Icon">
<g id="Group 1">
<path id="Vector" d="M27.5831 19.0109C27.2711 19.0109 27.0175 18.7576 27.0175 18.4452V17.4839C27.0175 17.1719 27.2707 16.9182 27.5831 16.9182C27.8951 16.9182 28.1488 17.1715 28.1488 17.4839V18.4452C28.1488 18.7576 27.8952 19.0109 27.5831 19.0109Z" fill="#103E13"/>
<path id="Vector_2" d="M25.2048 19.0109C24.8928 19.0109 24.6392 18.7576 24.6392 18.4452V17.4839C24.6392 17.1719 24.8924 16.9182 25.2048 16.9182C25.5169 16.9182 25.7705 17.1715 25.7705 17.4839V18.4452C25.7701 18.7576 25.5173 19.0109 25.2048 19.0109Z" fill="#103E13"/>
<path id="Vector_3" d="M22.8268 19.0109C22.5148 19.0109 22.2611 18.7576 22.2611 18.4452V17.4839C22.2611 17.1719 22.5144 16.9182 22.8268 16.9182C23.1388 16.9182 23.3925 17.1715 23.3925 17.4839V18.4452C23.3925 18.7576 23.1392 19.0109 22.8268 19.0109Z" fill="#103E13"/>
<path id="Vector_4" d="M27.5831 22.942C27.2711 22.942 27.0175 22.6888 27.0175 22.3763V21.4154C27.0175 21.1034 27.2707 20.8497 27.5831 20.8497C27.8951 20.8497 28.1488 21.103 28.1488 21.4154V22.3763C28.1488 22.6888 27.8952 22.942 27.5831 22.942Z" fill="#103E13"/>
<path id="Vector_5" d="M25.2048 22.942C24.8928 22.942 24.6392 22.6888 24.6392 22.3763V21.4154C24.6392 21.1034 24.8924 20.8497 25.2048 20.8497C25.5169 20.8497 25.7705 21.103 25.7705 21.4154V22.3763C25.7701 22.6888 25.5173 22.942 25.2048 22.942Z" fill="#103E13"/>
<path id="Vector_6" d="M22.8268 22.942C22.5148 22.942 22.2611 22.6888 22.2611 22.3763V21.4154C22.2611 21.1034 22.5144 20.8497 22.8268 20.8497C23.1388 20.8497 23.3925 21.103 23.3925 21.4154V22.3763C23.3925 22.6888 23.1392 22.942 22.8268 22.942Z" fill="#103E13"/>
<path id="Vector_7" d="M27.5831 26.8733C27.2711 26.8733 27.0175 26.6201 27.0175 26.3076V25.3463C27.0175 25.0343 27.2707 24.7806 27.5831 24.7806C27.8951 24.7806 28.1488 25.0339 28.1488 25.3463V26.3076C28.1488 26.6201 27.8952 26.8733 27.5831 26.8733Z" fill="#103E13"/>
<path id="Vector_8" d="M25.2048 26.8733C24.8928 26.8733 24.6392 26.6201 24.6392 26.3076V25.3463C24.6392 25.0343 24.8924 24.7806 25.2048 24.7806C25.5169 24.7806 25.7705 25.0339 25.7705 25.3463V26.3076C25.7701 26.6201 25.5173 26.8733 25.2048 26.8733Z" fill="#103E13"/>
<path id="Vector_9" d="M22.8268 26.8733C22.5148 26.8733 22.2611 26.6201 22.2611 26.3076V25.3463C22.2611 25.0343 22.5144 24.7806 22.8268 24.7806C23.1388 24.7806 23.3925 25.0339 23.3925 25.3463V26.3076C23.3925 26.6201 23.1392 26.8733 22.8268 26.8733Z" fill="#103E13"/>
<path id="Vector_10" d="M27.5831 30.8037C27.2711 30.8037 27.0175 30.5505 27.0175 30.2381V29.2767C27.0175 28.9647 27.2707 28.7111 27.5831 28.7111C27.8951 28.7111 28.1488 28.9643 28.1488 29.2767V30.2381C28.1488 30.5505 27.8952 30.8037 27.5831 30.8037Z" fill="#103E13"/>
<path id="Vector_11" d="M25.2048 30.8037C24.8928 30.8037 24.6392 30.5505 24.6392 30.2381V29.2767C24.6392 28.9647 24.8924 28.7111 25.2048 28.7111C25.5169 28.7111 25.7705 28.9643 25.7705 29.2767V30.2381C25.7701 30.5505 25.5173 30.8037 25.2048 30.8037Z" fill="#103E13"/>
<path id="Vector_12" d="M22.8268 30.8037C22.5148 30.8037 22.2611 30.5505 22.2611 30.2381V29.2767C22.2611 28.9647 22.5144 28.7111 22.8268 28.7111C23.1388 28.7111 23.3925 28.9643 23.3925 29.2767V30.2381C23.3925 30.5505 23.1392 30.8037 22.8268 30.8037Z" fill="#103E13"/>
<path id="Vector_13" d="M27.5831 34.735C27.2711 34.735 27.0175 34.4817 27.0175 34.1693V33.2084C27.0175 32.8964 27.2707 32.6427 27.5831 32.6427C27.8951 32.6427 28.1488 32.896 28.1488 33.2084V34.1693C28.1488 34.4813 27.8952 34.735 27.5831 34.735Z" fill="#103E13"/>
<path id="Vector_14" d="M25.2048 34.735C24.8928 34.735 24.6392 34.4817 24.6392 34.1693V33.2084C24.6392 32.8964 24.8924 32.6427 25.2048 32.6427C25.5169 32.6427 25.7705 32.896 25.7705 33.2084V34.1693C25.7701 34.4813 25.5173 34.735 25.2048 34.735Z" fill="#103E13"/>
<path id="Vector_15" d="M22.8268 34.735C22.5148 34.735 22.2611 34.4817 22.2611 34.1693L22.2615 33.2084C22.2615 32.8964 22.5148 32.6427 22.8272 32.6427C23.1392 32.6427 23.3929 32.896 23.3929 33.2084V34.1693C23.3925 34.4813 23.1392 34.735 22.8268 34.735Z" fill="#103E13"/>
<path id="Vector_16" d="M6.66722 38.6471C6.66722 38.9592 6.92047 39.2128 7.2329 39.2128H41.6806C41.9927 39.2128 42.2463 38.9596 42.2463 38.6471C42.2463 38.3351 41.9931 38.0815 41.6806 38.0815H40.635V21.8402C40.635 21.5281 40.3817 21.2745 40.0693 21.2745L30.8336 21.2749V9.56576C30.8336 9.36774 30.7302 9.18471 30.5614 9.08214C30.3929 8.97919 30.1823 8.97287 30.0072 9.06399L19.5068 14.531C19.3194 14.6284 19.2027 14.8217 19.2027 15.0327V25.2604H9.04063C8.7286 25.2604 8.47495 25.5137 8.47495 25.8261V38.0816H7.23163C6.91961 38.0812 6.66675 38.3344 6.66675 38.6468L6.66722 38.6471ZM30.8338 29.8422H39.5042V38.0819L30.8338 38.0815V29.8422ZM30.8338 25.9113H39.5042V28.7113L30.8338 28.7109V25.9113ZM30.8338 22.4056H39.5042V24.7808H30.8338V22.4056ZM20.3334 15.3762L29.702 10.4982V38.081H20.3334V15.3762ZM12.4026 33.5635C12.4026 32.3895 13.3328 31.4341 14.4763 31.4341C15.6199 31.4341 16.5505 32.3891 16.5505 33.5635V38.0817H12.4026V33.5635ZM9.60627 26.3916H19.2025V38.0815H17.6818V33.5633C17.6818 31.7657 16.2444 30.303 14.4763 30.303C12.7091 30.303 11.2717 31.7653 11.2717 33.5633V38.0815H9.60627V26.3916Z" fill="#103E13"/>
</g>
</g>
</svg>
