<svg width="49" height="48" viewBox="0 0 49 48" fill="none" xmlns="http://www.w3.org/2000/svg">
<g id="Icon">
<g id="Group 1">
<path id="Vector" d="M27.2497 19.0109C26.9377 19.0109 26.684 18.7576 26.684 18.4452V17.4839C26.684 17.1719 26.9373 16.9182 27.2497 16.9182C27.5617 16.9182 27.8154 17.1715 27.8154 17.4839V18.4452C27.8154 18.7576 27.5617 19.0109 27.2497 19.0109Z" fill="#103E13"/>
<path id="Vector_2" d="M24.8715 19.0109C24.5594 19.0109 24.3058 18.7576 24.3058 18.4452V17.4839C24.3058 17.1719 24.559 16.9182 24.8715 16.9182C25.1835 16.9182 25.4371 17.1715 25.4371 17.4839V18.4452C25.4367 18.7576 25.1839 19.0109 24.8715 19.0109Z" fill="#103E13"/>
<path id="Vector_3" d="M22.4934 19.0109C22.1814 19.0109 21.9277 18.7576 21.9277 18.4452V17.4839C21.9277 17.1719 22.181 16.9182 22.4934 16.9182C22.8054 16.9182 23.0591 17.1715 23.0591 17.4839V18.4452C23.0591 18.7576 22.8058 19.0109 22.4934 19.0109Z" fill="#103E13"/>
<path id="Vector_4" d="M27.2497 22.942C26.9377 22.942 26.684 22.6888 26.684 22.3763V21.4154C26.684 21.1034 26.9373 20.8497 27.2497 20.8497C27.5617 20.8497 27.8154 21.103 27.8154 21.4154V22.3763C27.8154 22.6888 27.5617 22.942 27.2497 22.942Z" fill="#103E13"/>
<path id="Vector_5" d="M24.8715 22.942C24.5594 22.942 24.3058 22.6888 24.3058 22.3763V21.4154C24.3058 21.1034 24.559 20.8497 24.8715 20.8497C25.1835 20.8497 25.4371 21.103 25.4371 21.4154V22.3763C25.4367 22.6888 25.1839 22.942 24.8715 22.942Z" fill="#103E13"/>
<path id="Vector_6" d="M22.4934 22.942C22.1814 22.942 21.9277 22.6888 21.9277 22.3763V21.4154C21.9277 21.1034 22.181 20.8497 22.4934 20.8497C22.8054 20.8497 23.0591 21.103 23.0591 21.4154V22.3763C23.0591 22.6888 22.8058 22.942 22.4934 22.942Z" fill="#103E13"/>
<path id="Vector_7" d="M27.2497 26.8733C26.9377 26.8733 26.684 26.6201 26.684 26.3076V25.3463C26.684 25.0343 26.9373 24.7806 27.2497 24.7806C27.5617 24.7806 27.8154 25.0339 27.8154 25.3463V26.3076C27.8154 26.6201 27.5617 26.8733 27.2497 26.8733Z" fill="#103E13"/>
<path id="Vector_8" d="M24.8715 26.8733C24.5594 26.8733 24.3058 26.6201 24.3058 26.3076V25.3463C24.3058 25.0343 24.559 24.7806 24.8715 24.7806C25.1835 24.7806 25.4371 25.0339 25.4371 25.3463V26.3076C25.4367 26.6201 25.1839 26.8733 24.8715 26.8733Z" fill="#103E13"/>
<path id="Vector_9" d="M22.4934 26.8733C22.1814 26.8733 21.9277 26.6201 21.9277 26.3076V25.3463C21.9277 25.0343 22.181 24.7806 22.4934 24.7806C22.8054 24.7806 23.0591 25.0339 23.0591 25.3463V26.3076C23.0591 26.6201 22.8058 26.8733 22.4934 26.8733Z" fill="#103E13"/>
<path id="Vector_10" d="M27.2497 30.8037C26.9377 30.8037 26.684 30.5505 26.684 30.2381V29.2767C26.684 28.9647 26.9373 28.7111 27.2497 28.7111C27.5617 28.7111 27.8154 28.9643 27.8154 29.2767V30.2381C27.8154 30.5505 27.5617 30.8037 27.2497 30.8037Z" fill="#103E13"/>
<path id="Vector_11" d="M24.8715 30.8037C24.5594 30.8037 24.3058 30.5505 24.3058 30.2381V29.2767C24.3058 28.9647 24.559 28.7111 24.8715 28.7111C25.1835 28.7111 25.4371 28.9643 25.4371 29.2767V30.2381C25.4367 30.5505 25.1839 30.8037 24.8715 30.8037Z" fill="#103E13"/>
<path id="Vector_12" d="M22.4934 30.8037C22.1814 30.8037 21.9277 30.5505 21.9277 30.2381V29.2767C21.9277 28.9647 22.181 28.7111 22.4934 28.7111C22.8054 28.7111 23.0591 28.9643 23.0591 29.2767V30.2381C23.0591 30.5505 22.8058 30.8037 22.4934 30.8037Z" fill="#103E13"/>
<path id="Vector_13" d="M27.2497 34.735C26.9377 34.735 26.684 34.4817 26.684 34.1693V33.2084C26.684 32.8964 26.9373 32.6427 27.2497 32.6427C27.5617 32.6427 27.8154 32.896 27.8154 33.2084V34.1693C27.8154 34.4813 27.5617 34.735 27.2497 34.735Z" fill="#103E13"/>
<path id="Vector_14" d="M24.8715 34.735C24.5594 34.735 24.3058 34.4817 24.3058 34.1693V33.2084C24.3058 32.8964 24.559 32.6427 24.8715 32.6427C25.1835 32.6427 25.4371 32.896 25.4371 33.2084V34.1693C25.4367 34.4813 25.1839 34.735 24.8715 34.735Z" fill="#103E13"/>
<path id="Vector_15" d="M22.4934 34.735C22.1814 34.735 21.9277 34.4817 21.9277 34.1693L21.9281 33.2084C21.9281 32.8964 22.1814 32.6427 22.4938 32.6427C22.8058 32.6427 23.0595 32.896 23.0595 33.2084V34.1693C23.0591 34.4813 22.8058 34.735 22.4934 34.735Z" fill="#103E13"/>
<path id="Vector_16" d="M6.33385 38.6471C6.33385 38.9592 6.5871 39.2128 6.89952 39.2128H41.3473C41.6593 39.2128 41.9129 38.9596 41.9129 38.6471C41.9129 38.3351 41.6597 38.0815 41.3473 38.0815H40.3016V21.8402C40.3016 21.5281 40.0483 21.2745 39.7359 21.2745L30.5002 21.2749V9.56576C30.5002 9.36774 30.3968 9.18471 30.228 9.08214C30.0596 8.97919 29.8489 8.97287 29.6738 9.06399L19.1734 14.531C18.9861 14.6284 18.8693 14.8217 18.8693 15.0327V25.2604H8.70725C8.39523 25.2604 8.14158 25.5137 8.14158 25.8261V38.0816H6.89826C6.58624 38.0812 6.33337 38.3344 6.33337 38.6468L6.33385 38.6471ZM30.5004 29.8422H39.1708V38.0819L30.5004 38.0815V29.8422ZM30.5004 25.9113H39.1708V28.7113L30.5004 28.7109V25.9113ZM30.5004 22.4056H39.1708V24.7808H30.5004V22.4056ZM20.0001 15.3762L29.3687 10.4982V38.081H20.0001V15.3762ZM12.0693 33.5635C12.0693 32.3895 12.9994 31.4341 14.143 31.4341C15.2865 31.4341 16.2171 32.3891 16.2171 33.5635V38.0817H12.0693V33.5635ZM9.27289 26.3916H18.8691V38.0815H17.3484V33.5633C17.3484 31.7657 15.911 30.303 14.143 30.303C12.3757 30.303 10.9383 31.7653 10.9383 33.5633V38.0815H9.27289V26.3916Z" fill="#103E13"/>
</g>
</g>
</svg>
