<svg width="19" height="18" viewBox="0 0 19 18" fill="none" xmlns="http://www.w3.org/2000/svg">
<g id="Essential Icons / send">
<path id="Vector" fill-rule="evenodd" clip-rule="evenodd" d="M17.5303 0.969691C17.7341 1.17342 17.8031 1.47584 17.7079 1.74778L12.4579 16.7478C12.3563 17.038 12.0878 17.2369 11.7806 17.2494C11.4733 17.2619 11.1895 17.0856 11.0646 16.8046L8.1818 10.3182L1.6954 7.43538C1.41439 7.31049 1.23809 7.02671 1.25063 6.71945C1.26316 6.41219 1.46199 6.14371 1.75224 6.04213L16.7522 0.792127C17.0242 0.696948 17.3266 0.765962 17.5303 0.969691ZM9.64456 9.91612L11.6671 14.4667L15.2064 4.35429L9.64456 9.91612ZM14.1457 3.29362L4.03331 6.83297L8.5839 8.85546L14.1457 3.29362Z" fill="white"/>
</g>
</svg>
